#define fedora15_width 15
#define fedora15_height 15
static unsigned char fedora15_bits[] = {
   0x00, 0x00, 0xf0, 0x07, 0xf8, 0x1f, 0xfc, 0x1c, 0x7e, 0x38, 0x7e, 0x3b,
   0x7e, 0x3f, 0x4e, 0x3c, 0x66, 0x3f, 0x76, 0x3f, 0x36, 0x3f, 0x8e, 0x1f,
   0x9e, 0x1f, 0xfe, 0x07, 0x00, 0x00 };
