/* XPM */
static char * start_here_kde_fedora_xpm[] = {
"32 32 15 1",
" 	c None",
".	c #50A2DB",
"+	c #51A1DA",
"@	c #51A2DA",
"#	c #52A1D9",
"$	c #51A3DA",
"%	c #51A1D9",
"&	c #51A1DB",
"*	c #50A2DA",
"=	c #51A2D9",
"-	c #52A2D9",
";	c #52A2DA",
">	c #51A2DB",
",	c #52A1DB",
"'	c #51A3DB",
"                                ",
"            .+@@@@+.            ",
"          @@@@@@@@@@@@          ",
"        @@@@@@@@@@@@@@@@        ",
"      #@@@@@@@@@@@@@@@@@@@      ",
"     $@@@@@@@@@@@@@@@@@@@@%     ",
"    +@@@@@@@@@@@@@@@@@@@@@@&    ",
"    @@@@@@@@@@@@*    @@@@@@@    ",
"   @@@@@@@@@@@@@      +@@@@@@   ",
"   @@@@@@@@@@@+        @@@@@@   ",
"  @@@@@@@@@@@@   &@@@   @@@@@@  ",
"  @@@@@@@@@@@@   @@@@   @@@@@@  ",
" =@@@@@@@@@@@@   @@@@   @@@@@@. ",
" +@@@@@@@@@@@@   @@@@@ *@@@@@@- ",
" @@@@@@@@@@@@@   @@@@@@@@@@@@@@ ",
" @@@@@@@@   @@      ;@@@@@@@@@@ ",
" @@@@@@@    @@      +@@@@@@@@@@ ",
" @@@@@+     @@      @@@@@@@@@@= ",
" @@@@@    $@@@   @@@@@@@@@@@@@@ ",
" @@@@@   +@@@@   @@@@@@@@@@@@@+ ",
" @@@@@   @@@@@   @@@@@@@@@@@@@  ",
" @@@@=  $@@@@@   @@@@@@@@@@@@+  ",
" @@@@@   @@@@>   @@@@@@@@@@@@   ",
" @@@@@    +@;   ,@@@@@@@@@@@;   ",
" @@@@@@         @@@@@@@@@@@@    ",
" @@@@@@'       @@@@@@@@@@@@     ",
" @@@@@@@@@   ;@@@@@@@@@@@@+     ",
" @@@@@@@@@@@@@@@@@@@@@@@@       ",
" *@@@@@@@@@@@@@@@@@@@@@+        ",
"  @@@@@@@@@@@@@@@@@@@=          ",
"   @@@@@@@@@@@@@@;@#            ",
"                                "};
