/* XPM */
static char * fedora20_xpm[] = {
"20 20 9 1",
" 	c None",
".	c #51A2DA",
"+	c #51A3DA",
"@	c #51A1D9",
"#	c #50A2DA",
"$	c #52A2DA",
"%	c #51A2D9",
"&	c #51A1DA",
"*	c #52A1DB",
"                    ",
"      ........      ",
"    ............    ",
"   +............@   ",
"  ........#  .....  ",
"  ........    ....  ",
" ........  ..  .... ",
" ........  ..  .... ",
" ........  ...#.... ",
" ..... ..   $...... ",
" ....   .    ...... ",
" ...  +..  ........ ",
" ...  ...  ........ ",
" ..% +...  .......& ",
" ...  &.  *.......  ",
" ....     .......   ",
" .....  $.......&   ",
" ..............     ",
" ............%      ",
"                    "};
