/* XPM */
static char * fedora15_xpm[] = {
"15 15 6 1",
" 	c None",
".	c #51A2DA",
"+	c #51A3DA",
"@	c #51A1D9",
"#	c #52A2DA",
"$	c #51A1DA",
"               ",
"    .......    ",
"  +.........@  ",
"  ......  ...  ",
" ......    ... ",
" ...... .. ... ",
" ...... ...... ",
" ...  .  #.... ",
" ..  .. ...... ",
" .. ... ...... ",
" .. ..  ...... ",
" ...   ......  ",
" .... #.....$  ",
" ..........    ",
"               "};
