#define fedora20_width 20
#define fedora20_height 20
static unsigned char fedora20_bits[] = {
   0x00, 0x00, 0x00, 0xc0, 0x3f, 0x00, 0xf0, 0xff, 0x00, 0xf0, 0xff, 0x01,
   0xfc, 0xe7, 0x03, 0xfc, 0xc3, 0x03, 0xfe, 0x99, 0x07, 0xfe, 0x99, 0x07,
   0xfe, 0xf9, 0x07, 0xbe, 0xe1, 0x07, 0x1e, 0xe1, 0x07, 0x8e, 0xf9, 0x07,
   0xce, 0xf9, 0x07, 0xce, 0xf9, 0x07, 0xce, 0xfc, 0x03, 0x1e, 0xfc, 0x01,
   0x3e, 0xfe, 0x01, 0xfe, 0x7f, 0x00, 0xfe, 0x3f, 0x00, 0x00, 0x00, 0x00 };
