#define grid_width 20
#define grid_height 20
static unsigned char grid_bits[] = {
   0x00, 0x00, 0x00, 0x00, 0x00, 0x00, 0x00, 0x00, 0x00, 0x00, 0x00, 0x00,
   0xf8, 0xff, 0x01, 0x08, 0x02, 0x01, 0x08, 0x02, 0x01, 0x08, 0xfe, 0x01,
   0x08, 0x02, 0x01, 0x08, 0x02, 0x01, 0xf8, 0xff, 0x01, 0x08, 0x12, 0x01,
   0x08, 0x12, 0x01, 0x08, 0x12, 0x01, 0x08, 0x12, 0x01, 0x08, 0x12, 0x01,
   0xf8, 0xff, 0x01, 0x00, 0x00, 0x00, 0x00, 0x00, 0x00, 0x00, 0x00, 0x00 };
