#define mirrorspacingtall_width 20
#define mirrorspacingtall_height 20
static unsigned char mirrorspacingtall_bits[] = {
   0x00, 0x00, 0x00, 0x00, 0x00, 0x00, 0x00, 0x00, 0x00, 0x00, 0x00, 0x00,
   0xf8, 0xff, 0x01, 0x08, 0x00, 0x01, 0x08, 0x00, 0x01, 0x08, 0x00, 0x01,
   0x08, 0x00, 0x01, 0xf8, 0xff, 0x01, 0x00, 0x00, 0x00, 0xf8, 0xfd, 0x01,
   0x08, 0x05, 0x01, 0x08, 0x05, 0x01, 0x08, 0x05, 0x01, 0x08, 0x05, 0x01,
   0xf8, 0xfd, 0x01, 0x00, 0x00, 0x00, 0x00, 0x00, 0x00, 0x00, 0x00, 0x00 };
