#define spacingtall_width 20
#define spacingtall_height 20
static unsigned char spacingtall_bits[] = {
   0x00, 0x00, 0x00, 0x00, 0x00, 0x00, 0x00, 0x00, 0x00, 0x00, 0x00, 0x00,
   0xf8, 0xfb, 0x01, 0x08, 0x0a, 0x01, 0x08, 0x0a, 0x01, 0x08, 0x0a, 0x01,
   0x08, 0x0a, 0x01, 0x08, 0xfa, 0x01, 0x08, 0x02, 0x00, 0x08, 0xfa, 0x01,
   0x08, 0x0a, 0x01, 0x08, 0x0a, 0x01, 0x08, 0x0a, 0x01, 0x08, 0x0a, 0x01,
   0xf8, 0xfb, 0x01, 0x00, 0x00, 0x00, 0x00, 0x00, 0x00, 0x00, 0x00, 0x00 };
